<?xml version="1.0" encoding="UTF-8" standalone="no"?>
<!DOCTYPE svg PUBLIC "-//W3C//DTD SVG 1.0//EN" "http://www.w3.org/TR/2001/REC-SVG-20010904/DTD/svg10.dtd">
<!-- Created with Inkscape (http://www.inkscape.org/) -->
<svg
   xmlns:svg="http://www.w3.org/2000/svg"
   xmlns="http://www.w3.org/2000/svg"
   version="1.0"
   width="800"
   height="600"
   id="svg2">
  <defs
     id="defs4" />
  <g
     id="layer1">
    <path
       d="M 33.197898,16.657344 L 33.197898,50.337775 L 212.51603,50.337775 C 239.03883,50.337775 260.40368,71.702605 260.40368,98.225429 L 260.40368,566.95391 C 298.13122,580.87529 338.95136,588.51158 381.63129,588.51158 L 387.17156,588.51158 L 387.17156,45.016926 C 387.17156,29.299701 374.52922,16.657344 358.81197,16.657344 L 33.197898,16.657344 z M 454.14844,16.657344 C 438.4312,16.657344 425.78889,29.299701 425.78886,45.016926 L 425.78886,588.51158 L 431.27427,588.51158 C 473.9542,588.51158 514.82921,580.87529 552.55674,566.95391 L 552.55674,98.225429 C 552.55674,71.702605 573.92162,50.337775 600.44439,50.337775 L 779.70766,50.337775 L 779.70766,16.657344 L 454.14844,16.657344 z"
       id="path3323"
       style="opacity:1;fill:#1f1a17;fill-opacity:1;fill-rule:nonzero;stroke:none;stroke-width:1;stroke-linecap:round;stroke-linejoin:round;stroke-miterlimit:4;stroke-dasharray:none;stroke-opacity:1" />
    <path
       d="M 33.197898,92.904579 L 33.197898,240.0782 C 33.197898,373.80131 107.83305,489.41597 217.83688,547.86468 L 217.83688,121.26416 C 217.83688,105.54693 205.1945,92.904579 189.4773,92.904579 L 33.197898,92.904579 z M 623.48312,92.904579 C 607.76591,92.904579 595.12357,105.54693 595.12354,121.26416 L 595.12354,547.86468 C 705.12736,489.41597 779.70762,373.80131 779.70766,240.0782 L 779.70766,92.904579 L 623.48312,92.904579 z"
       id="rect2533"
       style="opacity:1;fill:#a7292c;fill-opacity:1;fill-rule:nonzero;stroke:none;stroke-width:1;stroke-linecap:round;stroke-linejoin:round;stroke-miterlimit:4;stroke-dasharray:none;stroke-opacity:1" />
  </g>
</svg>
