<svg xmlns="http://www.w3.org/2000/svg" viewBox="0 0 240 80" role="img" aria-labelledby="title">
  <title id="title">AIRi@UTCN</title>
  <rect width="240" height="80" rx="16" fill="#ffffff"/>
  <path d="M28 58 50 20h13l22 38H70l-4-8H47l-4 8H28Zm24-18h9l-4.5-9-4.5 9Z" fill="#0B2341"/>
  <path d="M90 20h13v38H90V20Zm21 0h31c9 0 15 5 15 13 0 6-3 10-9 12l11 13h-16l-9-11h-10v11h-13V20Zm13 11v7h16c3 0 5-1 5-4s-2-3-5-3h-16Z" fill="#0B2341"/>
  <path d="M166 20h13v38h-13V20Z" fill="#E31E24"/>
  <circle cx="172.5" cy="12" r="6" fill="#E31E24"/>
  <path d="M192 56c-7 0-12-5-12-12s5-12 12-12c4 0 7 1 9 4v-3h9v21c0 2 1 3 3 3h1v8h-3c-6 0-9-2-10-6-2 4-6 6-9 6Zm2-8c4 0 7-3 7-6s-3-6-7-6-7 3-7 6 3 6 7 6Z" fill="#0B2341"/>
  <path d="M28 68h184" stroke="#0B2341" stroke-width="3" stroke-linecap="round"/>
</svg>
